<?xml version="1.0" standalone="no"?><!DOCTYPE svg PUBLIC "-//W3C//DTD SVG 1.1//EN" "http://www.w3.org/Graphics/SVG/1.1/DTD/svg11.dtd"><svg t="1685800477442" class="icon" viewBox="0 0 1024 1024" version="1.1" xmlns="http://www.w3.org/2000/svg" p-id="4018" xmlns:xlink="http://www.w3.org/1999/xlink" width="16" height="16"><path d="M704 397.92c-15.04-140.96-151.04-251.36-316.48-251.36-176 0-317.92 124.16-317.92 277.28a267.36 267.36 0 0 0 129.12 224c8.8 5.6-29.12 85.28-19.68 90.08s28.48-11.2 48.8-26.56 39.52-29.76 48-26.88a362.56 362.56 0 0 0 112 17.44 376.16 376.16 0 0 0 57.44-4.48c36.96 84.8 133.44 145.44 246.56 145.44a305.12 305.12 0 0 0 88.16-12.96c4.48-1.28 21.76 11.36 39.2 24.16s35.36 25.76 39.68 24c13.76-5.76-25.44-69.92-12.96-77.44 65.76-40.48 108.48-105.92 108.48-180-0.16-120-111.04-217.12-250.4-222.72z m-109.12 167.2a28 28 0 1 1 27.68-28 27.84 27.84 0 0 1-27.68 28z m-165.76 54.72a204.64 204.64 0 0 0 1.44 24.32 314.72 314.72 0 0 1-42.88 2.88 302.08 302.08 0 0 1-103.36-17.76c-3.2-1.12-14.4-4.64-20.48 0a265.28 265.28 0 0 0-32 32 142.4 142.4 0 0 0 8.96-38.4c1.12-10.24-14.56-17.6-17.76-19.68a220 220 0 0 1-98.08-178.4c0-122.88 117.6-222.4 262.72-222.4 135.36 0 246.88 86.72 260.96 198.24-124.48 17.44-219.52 108.96-219.52 219.2z m331.68-54.72a28 28 0 1 1 27.68-28 27.68 27.68 0 0 1-27.68 28z" fill="#8DC81B" p-id="4019"></path><path d="M498.24 286.08a41.92 41.92 0 1 0 41.44 41.92 41.76 41.76 0 0 0-41.44-41.92zM276.96 286.08a41.92 41.92 0 1 0 41.6 41.92 41.6 41.6 0 0 0-41.6-41.92z" fill="#8DC81B" p-id="4020"></path></svg>